<svg width="34" height="24" viewBox="0 0 34 24" fill="none" xmlns="http://www.w3.org/2000/svg">
<rect x="0.5" y="0.5" width="33" height="23" rx="3.5" fill="white" stroke="#D9D9D9"/>
<path fill-rule="evenodd" clip-rule="evenodd" d="M7.83849 15.2998H10.4346C14.487 15.2998 17.7163 12.0848 17.8429 8.11329V8.05025C17.7796 4.01572 14.487 0.737659 10.4346 0.800699H7.52189C3.65942 0.926778 0.6201 4.20484 0.746738 8.11329C0.746738 12.0217 3.9127 15.2368 7.83849 15.2998ZM2.01313 8.05022C2.01313 4.77216 4.73585 2.06146 8.02845 2.06146C11.321 2.06146 14.0438 4.77216 14.0438 8.05022C14.0438 11.3283 11.321 14.039 8.02845 14.039C4.73585 14.039 2.01313 11.3283 2.01313 8.05022ZM8.97824 12.0848V4.07874C11.1944 4.64609 12.5874 6.85248 12.0176 9.05886C11.6376 10.5718 10.4979 11.7065 8.97824 12.0848ZM4.10266 7.0416C3.53278 9.24798 4.86249 11.5174 7.07866 12.0848V4.07874C5.62232 4.45697 4.48257 5.59169 4.10266 7.0416Z" fill="#0079BE"/>

</svg>
