<svg width="19" height="19" viewBox="0 0 19 19" fill="none" xmlns="http://www.w3.org/2000/svg">
<path fill-rule="evenodd" clip-rule="evenodd" d="M0.75 4.25017C0.75 3.32187 1.11875 2.43159 1.77513 1.77518C2.4315 1.11877 3.32174 0.75 4.25 0.75H14.75C15.6783 0.75 16.5685 1.11877 17.2249 1.77518C17.8813 2.43159 18.25 3.32187 18.25 4.25017V14.7507C18.25 15.679 17.8813 16.5693 17.2249 17.2257C16.5685 17.8821 15.6783 18.2509 14.75 18.2509H4.25C3.32174 18.2509 2.4315 17.8821 1.77513 17.2257C1.11875 16.5693 0.75 15.679 0.75 14.7507V4.25017ZM4.25 2.50009C3.78587 2.50009 3.34075 2.68447 3.01256 3.01268C2.68437 3.34088 2.5 3.78602 2.5 4.25017V14.7507C2.5 15.2148 2.68437 15.66 3.01256 15.9882C3.34075 16.3164 3.78587 16.5008 4.25 16.5008H9.5V10.3755H8.625C8.39294 10.3755 8.17038 10.2833 8.00628 10.1192C7.84219 9.95508 7.75 9.73251 7.75 9.50043C7.75 9.26836 7.84219 9.04579 8.00628 8.88168C8.17038 8.71758 8.39294 8.62539 8.625 8.62539H9.5V7.31282C9.5 6.50056 9.82266 5.72156 10.397 5.1472C10.9713 4.57284 11.7503 4.25017 12.5625 4.25017H13.0875C13.3196 4.25017 13.5421 4.34237 13.7062 4.50647C13.8703 4.67057 13.9625 4.89314 13.9625 5.12522C13.9625 5.35729 13.8703 5.57986 13.7062 5.74397C13.5421 5.90807 13.3196 6.00026 13.0875 6.00026H12.5625C12.3901 6.00026 12.2195 6.03421 12.0602 6.10017C11.901 6.16614 11.7563 6.26282 11.6344 6.3847C11.5125 6.50658 11.4159 6.65128 11.3499 6.81053C11.2839 6.96978 11.25 7.14046 11.25 7.31282V8.62539H13.0875C13.3196 8.62539 13.5421 8.71758 13.7062 8.88168C13.8703 9.04579 13.9625 9.26836 13.9625 9.50043C13.9625 9.73251 13.8703 9.95508 13.7062 10.1192C13.5421 10.2833 13.3196 10.3755 13.0875 10.3755H11.25V16.5008H14.75C15.2141 16.5008 15.6592 16.3164 15.9874 15.9882C16.3156 15.66 16.5 15.2148 16.5 14.7507V4.25017C16.5 3.78602 16.3156 3.34088 15.9874 3.01268C15.6592 2.68447 15.2141 2.50009 14.75 2.50009H4.25Z" fill="white"/>
</svg>
