<svg width="34" height="24" viewBox="0 0 34 24" fill="none" xmlns="http://www.w3.org/2000/svg">
<rect x="0.5" y="0.5" width="33" height="23" rx="3.5" fill="white" stroke="#D9D9D9"/>
<path fill-rule="evenodd" clip-rule="evenodd" d="M16.0579 15.5283V12.5937H17.5725C18.1931 12.5937 18.717 12.3857 19.1441 11.9755L19.2466 11.8716C20.0266 11.0224 19.9754 9.69945 19.1441 8.91379C18.7284 8.49786 18.159 8.27256 17.5725 8.28411H15.1411V15.5283H16.0579ZM16.058 11.704V9.1737H17.5956C17.9259 9.1737 18.2391 9.30079 18.4726 9.53186C18.9681 10.0171 18.9795 10.8259 18.5011 11.3285C18.2676 11.5769 17.9373 11.7155 17.5956 11.704H16.058Z" fill="#3C4043"/>
<path fill-rule="evenodd" clip-rule="evenodd" d="M23.5229 10.959C23.13 10.595 22.5948 10.4102 21.9172 10.4102C21.046 10.4102 20.3911 10.7337 19.9584 11.3749L20.767 11.889C21.063 11.45 21.4673 11.2305 21.9798 11.2305C22.3044 11.2305 22.6175 11.3518 22.8624 11.5713C23.1015 11.7793 23.2382 12.0797 23.2382 12.3974V12.6111C22.8852 12.4147 22.441 12.3107 21.8944 12.3107C21.2566 12.3107 20.7442 12.4609 20.3627 12.7671C19.9812 13.0733 19.7876 13.4777 19.7876 13.9918C19.7762 14.4597 19.9755 14.9046 20.3285 15.205C20.6872 15.5285 21.1428 15.6902 21.678 15.6902C22.3101 15.6902 22.8111 15.4072 23.1926 14.841H23.2325V15.5285H24.1094V12.4725C24.1094 11.8313 23.9158 11.3229 23.5229 10.959ZM21.0347 14.6157C20.8468 14.4771 20.7329 14.2518 20.7329 14.0092C20.7329 13.7377 20.8582 13.5124 21.1031 13.3333C21.3536 13.1542 21.6669 13.0618 22.037 13.0618C22.5496 13.056 22.9482 13.1715 23.233 13.4026C23.233 13.7954 23.0792 14.1363 22.7774 14.4251C22.504 14.7024 22.1339 14.8584 21.7466 14.8584C21.4903 14.8641 21.2397 14.7775 21.0347 14.6157Z" fill="#3C4043"/>
<path d="M29.1429 10.5718L26.0795 17.7062H25.1343L26.2731 15.2106L24.2631 10.5718H25.2595L26.7115 14.1303H26.7286L28.1464 10.5718H29.1429Z" fill="#3C4043"/>
<path d="M12.893 11.9582C12.893 11.6751 12.8702 11.392 12.8247 11.1147H8.95837V12.7149H11.1734C11.0823 13.2291 10.7862 13.6912 10.3534 13.9801V15.0199H11.6745C12.4488 14.2978 12.893 13.2291 12.893 11.9582Z" fill="#4285F4"/>
<path d="M8.95854 16.0252C10.0632 16.0252 10.997 15.6555 11.6746 15.0201L10.3536 13.9802C9.98347 14.2344 9.51086 14.3788 8.95854 14.3788C7.88805 14.3788 6.98269 13.6452 6.65813 12.6631H5.29724V13.7376C5.99192 15.1414 7.40975 16.0252 8.95854 16.0252Z" fill="#34A853"/>
<path d="M6.65822 12.6626C6.48737 12.1485 6.48737 11.5882 6.65822 11.0682V9.99951H5.29712C4.71053 11.1722 4.71053 12.5587 5.29712 13.7314L6.65822 12.6626Z" fill="#FBBC04"/>
<path d="M8.95854 9.35271C9.54503 9.34116 10.1087 9.56646 10.5301 9.97662L11.7031 8.78658C10.9572 8.0818 9.97778 7.69475 8.95854 7.70631C7.40975 7.70631 5.99192 8.59594 5.29724 9.99972L6.65813 11.0742C6.98269 10.0864 7.88805 9.35271 8.95854 9.35271Z" fill="#EA4335"/>
</svg>
