<svg width="19" height="19" viewBox="0 0 19 19" fill="none" xmlns="http://www.w3.org/2000/svg">
<path fill-rule="evenodd" clip-rule="evenodd" d="M0.75 4.25017C0.75 3.32187 1.11875 2.43159 1.77513 1.77518C2.4315 1.11877 3.32174 0.75 4.25 0.75H14.75C15.6783 0.75 16.5685 1.11877 17.2249 1.77518C17.8812 2.43159 18.25 3.32187 18.25 4.25017V14.7507C18.25 15.679 17.8812 16.5693 17.2249 17.2257C16.5685 17.8821 15.6783 18.2509 14.75 18.2509H4.25C3.32174 18.2509 2.4315 17.8821 1.77513 17.2257C1.11875 16.5693 0.75 15.679 0.75 14.7507V4.25017ZM4.25 2.50009C3.78587 2.50009 3.34075 2.68447 3.01256 3.01268C2.68437 3.34088 2.5 3.78602 2.5 4.25017V14.7507C2.5 15.2148 2.68437 15.66 3.01256 15.9882C3.34075 16.3164 3.78587 16.5008 4.25 16.5008H14.75C15.2141 16.5008 15.6592 16.3164 15.9874 15.9882C16.3156 15.66 16.5 15.2148 16.5 14.7507V4.25017C16.5 3.78602 16.3156 3.34088 15.9874 3.01268C15.6592 2.68447 15.2141 2.50009 14.75 2.50009H4.25ZM9.5 6.8753C8.80381 6.8753 8.13613 7.15188 7.64384 7.64419C7.15156 8.13649 6.875 8.8042 6.875 9.50043C6.875 10.1967 7.15156 10.8644 7.64384 11.3567C8.13613 11.849 8.80381 12.1256 9.5 12.1256C10.1962 12.1256 10.8639 11.849 11.3562 11.3567C11.8484 10.8644 12.125 10.1967 12.125 9.50043C12.125 8.8042 11.8484 8.13649 11.3562 7.64419C10.8639 7.15188 10.1962 6.8753 9.5 6.8753ZM5.125 9.50043C5.125 8.34005 5.58594 7.2272 6.40641 6.40669C7.22688 5.58618 8.33968 5.12522 9.5 5.12522C10.6603 5.12522 11.7731 5.58618 12.5936 6.40669C13.4141 7.2272 13.875 8.34005 13.875 9.50043C13.875 10.6608 13.4141 11.7737 12.5936 12.5942C11.7731 13.4147 10.6603 13.8756 9.5 13.8756C8.33968 13.8756 7.22688 13.4147 6.40641 12.5942C5.58594 11.7737 5.125 10.6608 5.125 9.50043ZM14.3125 6.00026C14.6606 6.00026 14.9944 5.86197 15.2406 5.61582C15.4867 5.36966 15.625 5.03581 15.625 4.68769C15.625 4.33958 15.4867 4.00572 15.2406 3.75957C14.9944 3.51342 14.6606 3.37513 14.3125 3.37513C13.9644 3.37513 13.6306 3.51342 13.3844 3.75957C13.1383 4.00572 13 4.33958 13 4.68769C13 5.03581 13.1383 5.36966 13.3844 5.61582C13.6306 5.86197 13.9644 6.00026 14.3125 6.00026Z" fill="white"/>
</svg>
