<svg width="19" height="19" viewBox="0 0 19 19" fill="none" xmlns="http://www.w3.org/2000/svg">
<path fill-rule="evenodd" clip-rule="evenodd" d="M4.25 0.75C3.32174 0.75 2.4315 1.11877 1.77513 1.77518C1.11875 2.43159 0.75 3.32187 0.75 4.25017V14.7507C0.75 15.679 1.11875 16.5693 1.77513 17.2257C2.4315 17.8821 3.32174 18.2509 4.25 18.2509H14.75C15.6783 18.2509 16.5685 17.8821 17.2249 17.2257C17.8812 16.5693 18.25 15.679 18.25 14.7507V4.25017C18.25 3.32187 17.8812 2.43159 17.2249 1.77518C16.5685 1.11877 15.6783 0.75 14.75 0.75H4.25ZM2.5 4.25017C2.5 3.78602 2.68437 3.34088 3.01256 3.01268C3.34075 2.68447 3.78587 2.50009 4.25 2.50009H14.75C15.2141 2.50009 15.6592 2.68447 15.9874 3.01268C16.3156 3.34088 16.5 3.78602 16.5 4.25017V14.7507C16.5 15.2148 16.3156 15.66 15.9874 15.9882C15.6592 16.3164 15.2141 16.5008 14.75 16.5008H4.25C3.78587 16.5008 3.34075 16.3164 3.01256 15.9882C2.68437 15.66 2.5 15.2148 2.5 14.7507V4.25017ZM6.875 8.62539C6.875 8.39331 6.78281 8.17074 6.61872 8.00664C6.45462 7.84254 6.23206 7.75035 6 7.75035C5.76793 7.75035 5.54538 7.84254 5.38128 8.00664C5.21719 8.17074 5.125 8.39331 5.125 8.62539V13.8756C5.125 14.1077 5.21719 14.3303 5.38128 14.4944C5.54538 14.6585 5.76793 14.7507 6 14.7507C6.23206 14.7507 6.45462 14.6585 6.61872 14.4944C6.78281 14.3303 6.875 14.1077 6.875 13.8756V8.62539ZM7.3125 5.56274C7.3125 5.91085 7.17422 6.24471 6.92808 6.49086C6.68194 6.73702 6.3481 6.8753 6 6.8753C5.6519 6.8753 5.31806 6.73702 5.07192 6.49086C4.82578 6.24471 4.6875 5.91085 4.6875 5.56274C4.6875 5.21462 4.82578 4.88077 5.07192 4.63461C5.31806 4.38846 5.6519 4.25017 6 4.25017C6.3481 4.25017 6.68194 4.38846 6.92808 4.63461C7.17422 4.88077 7.3125 5.21462 7.3125 5.56274ZM9.5 7.75035C9.7975 7.75035 10.06 7.8991 10.2175 8.12487C10.6685 7.87907 11.1739 7.7503 11.6875 7.75035C13.5775 7.75035 14.75 9.43568 14.75 10.8751V13.8756C14.75 14.1077 14.6578 14.3303 14.4937 14.4944C14.3296 14.6585 14.1071 14.7507 13.875 14.7507C13.6429 14.7507 13.4204 14.6585 13.2563 14.4944C13.0922 14.3303 13 14.1077 13 13.8756V10.8743C13 10.2022 12.4225 9.49956 11.6875 9.49956C11.229 9.49956 10.7224 9.74895 10.375 10.3422V13.8756C10.375 14.1077 10.2828 14.3303 10.1187 14.4944C9.95462 14.6585 9.73206 14.7507 9.5 14.7507C9.26793 14.7507 9.04537 14.6585 8.88128 14.4944C8.71719 14.3303 8.625 14.1077 8.625 13.8756V8.62539C8.625 8.39331 8.71719 8.17074 8.88128 8.00664C9.04537 7.84254 9.26793 7.75035 9.5 7.75035Z" fill="white"/>
</svg>
