<svg width="148" height="30" viewBox="0 0 148 30" fill="none" xmlns="http://www.w3.org/2000/svg">
<path d="M46.7783 18.6426C46.7783 18.1445 46.6025 17.7637 46.251 17.5C45.8994 17.2305 45.2666 16.9492 44.3525 16.6562C43.4385 16.3574 42.7148 16.0645 42.1816 15.7773C40.7285 14.9922 40.002 13.9346 40.002 12.6045C40.002 11.9131 40.1953 11.2979 40.582 10.7588C40.9746 10.2139 41.5342 9.78906 42.2607 9.48438C42.9932 9.17969 43.8135 9.02734 44.7217 9.02734C45.6357 9.02734 46.4502 9.19434 47.165 9.52832C47.8799 9.85645 48.4336 10.3223 48.8262 10.9258C49.2246 11.5293 49.4238 12.2148 49.4238 12.9824H46.7871C46.7871 12.3965 46.6025 11.9424 46.2334 11.6201C45.8643 11.292 45.3457 11.1279 44.6777 11.1279C44.0332 11.1279 43.5322 11.2656 43.1748 11.541C42.8174 11.8105 42.6387 12.168 42.6387 12.6133C42.6387 13.0293 42.8467 13.3779 43.2627 13.6592C43.6846 13.9404 44.3027 14.2041 45.1172 14.4502C46.6172 14.9014 47.71 15.4609 48.3955 16.1289C49.0811 16.7969 49.4238 17.6289 49.4238 18.625C49.4238 19.7324 49.0049 20.6025 48.167 21.2354C47.3291 21.8623 46.2012 22.1758 44.7832 22.1758C43.7988 22.1758 42.9023 21.9971 42.0938 21.6396C41.2852 21.2764 40.667 20.7812 40.2393 20.1543C39.8174 19.5273 39.6064 18.8008 39.6064 17.9746H42.252C42.252 19.3867 43.0957 20.0928 44.7832 20.0928C45.4102 20.0928 45.8994 19.9668 46.251 19.7148C46.6025 19.457 46.7783 19.0996 46.7783 18.6426ZM60.9023 9.20312V17.6318C60.9023 19.0322 60.4629 20.1396 59.584 20.9541C58.7109 21.7686 57.5156 22.1758 55.998 22.1758C54.5039 22.1758 53.3174 21.7803 52.4385 20.9893C51.5596 20.1982 51.1113 19.1113 51.0938 17.7285V9.20312H53.7305V17.6494C53.7305 18.4873 53.9297 19.0996 54.3281 19.4863C54.7324 19.8672 55.2891 20.0576 55.998 20.0576C57.4805 20.0576 58.2334 19.2783 58.2568 17.7197V9.20312H60.9023ZM73.1895 20.3828C72.7148 20.9512 72.0439 21.3936 71.1768 21.71C70.3096 22.0205 69.3486 22.1758 68.2939 22.1758C67.1865 22.1758 66.2139 21.9355 65.376 21.4551C64.5439 20.9688 63.8994 20.2656 63.4424 19.3457C62.9912 18.4258 62.7598 17.3447 62.748 16.1025V15.2324C62.748 13.9551 62.9619 12.8506 63.3896 11.9189C63.8232 10.9814 64.4443 10.2666 65.2529 9.77441C66.0674 9.27637 67.0195 9.02734 68.1094 9.02734C69.627 9.02734 70.8135 9.39062 71.6689 10.1172C72.5244 10.8379 73.0312 11.8896 73.1895 13.2725H70.623C70.5059 12.54 70.2451 12.0039 69.8408 11.6641C69.4424 11.3242 68.8916 11.1543 68.1885 11.1543C67.292 11.1543 66.6094 11.4912 66.1406 12.165C65.6719 12.8389 65.4346 13.8408 65.4287 15.1709V15.9883C65.4287 17.3301 65.6836 18.3438 66.1934 19.0293C66.7031 19.7148 67.4502 20.0576 68.4346 20.0576C69.4248 20.0576 70.1309 19.8467 70.5527 19.4248V17.2188H68.1533V15.2764H73.1895V20.3828ZM82.5586 19.3633H77.9355L77.0566 22H74.2529L79.0166 9.20312H81.46L86.25 22H83.4463L82.5586 19.3633ZM78.6475 17.2275H81.8467L80.2383 12.4375L78.6475 17.2275ZM92.1826 17.3154H90.082V22H87.4453V9.20312H92.2002C93.7119 9.20312 94.8779 9.54004 95.6982 10.2139C96.5186 10.8877 96.9287 11.8398 96.9287 13.0703C96.9287 13.9434 96.7383 14.6729 96.3574 15.2588C95.9824 15.8389 95.4111 16.3018 94.6436 16.6475L97.4121 21.877V22H94.582L92.1826 17.3154ZM90.082 15.1797H92.209C92.8711 15.1797 93.3838 15.0127 93.7471 14.6787C94.1104 14.3389 94.292 13.873 94.292 13.2812C94.292 12.6777 94.1191 12.2031 93.7734 11.8574C93.4336 11.5117 92.9092 11.3389 92.2002 11.3389H90.082V15.1797ZM113.47 17.7373C113.37 19.1143 112.86 20.1982 111.94 20.9893C111.026 21.7803 109.819 22.1758 108.319 22.1758C106.679 22.1758 105.387 21.625 104.443 20.5234C103.506 19.416 103.037 17.8984 103.037 15.9707V15.1885C103.037 13.958 103.254 12.874 103.688 11.9365C104.121 10.999 104.739 10.2812 105.542 9.7832C106.351 9.2793 107.288 9.02734 108.354 9.02734C109.831 9.02734 111.021 9.42285 111.923 10.2139C112.825 11.0049 113.347 12.1152 113.487 13.5449H110.851C110.786 12.7188 110.555 12.1211 110.156 11.752C109.764 11.377 109.163 11.1895 108.354 11.1895C107.476 11.1895 106.816 11.5059 106.377 12.1387C105.943 12.7656 105.721 13.7412 105.709 15.0654V16.0322C105.709 17.415 105.917 18.4258 106.333 19.0645C106.755 19.7031 107.417 20.0225 108.319 20.0225C109.134 20.0225 109.74 19.8379 110.139 19.4688C110.543 19.0938 110.774 18.5166 110.833 17.7373H113.47ZM122.426 19.3633H117.803L116.924 22H114.12L118.884 9.20312H121.327L126.117 22H123.313L122.426 19.3633ZM118.515 17.2275H121.714L120.105 12.4375L118.515 17.2275ZM131.32 16.8672L129.949 18.3438V22H127.312V9.20312H129.949V15.0039L131.109 13.4131L134.37 9.20312H137.613L133.069 14.8896L137.745 22H134.607L131.32 16.8672ZM146.438 16.4541H141.375V19.8818H147.316V22H138.738V9.20312H147.299V11.3389H141.375V14.3887H146.438V16.4541Z" fill="white"/>
<path d="M24.8798 2.58309C24.6569 2.45173 24.3875 2.4253 24.1433 2.51073C21.6366 3.388 19.1377 4.25817 17.1356 4.95456C16.5045 4.26157 15.6548 3.77167 14.6972 3.59231C14.4483 2.14323 13.5323 0.891668 12.1835 0.217196L11.936 0.0935042C11.5021 -0.123527 10.974 0.05243 10.7569 0.486551C10.5398 0.920672 10.7157 1.44866 11.1499 1.66569L11.3974 1.78938C12.1547 2.16807 12.6929 2.83856 12.9062 3.62782C11.0494 4.0528 9.63791 5.65645 9.50391 7.60681C6.64037 8.60196 3.60076 9.65964 0.588574 10.7139C0.236016 10.8373 5.85938e-05 11.17 5.85938e-05 11.5434H0V20.9184H0.000761719C0.000820313 21.282 0.227168 21.6221 0.589863 21.7484L24.1446 29.9515C24.2385 29.9844 24.3362 30.0005 24.4336 30.0005C24.5387 30.0005 24.6432 29.9817 24.7423 29.9445C24.7661 29.9386 24.7959 29.932 24.831 29.9239C25.3168 29.8116 26.6074 29.5131 27.7754 28.553C29.2515 27.3396 30 25.5595 30 23.2622V11.5434C30 11.3007 29.9418 5.56604 24.8798 2.58309ZM13.8867 5.2739C15.3406 5.2739 16.5234 6.45673 16.5234 7.91061C16.5234 9.3645 15.3406 10.5473 13.8867 10.5473C12.4328 10.5473 11.25 9.3645 11.25 7.91061C11.25 6.45673 12.4328 5.2739 13.8867 5.2739ZM9.74684 9.38325C10.3537 11.0842 11.98 12.3051 13.8867 12.3051C16.3099 12.3051 18.2812 10.3338 18.2812 7.91061C18.2812 7.41667 18.1981 6.94206 18.0472 6.49856C19.8819 5.8603 22.091 5.09097 24.3271 4.30868C28.1965 6.84456 28.2422 11.4954 28.2422 11.5434C28.2422 15.62 25.3051 18.0629 24.3111 18.7725L19.4505 17.0713C19.1817 16.9772 18.8839 17.0191 18.6516 17.1841C18.4192 17.3488 18.2812 17.616 18.2812 17.9009V21.5044C18.2812 21.989 17.887 22.3833 17.4023 22.3833C16.9177 22.3833 16.5234 21.989 16.5234 21.5044V16.6704C16.5234 16.2961 16.2864 15.9629 15.9328 15.8401L3.55061 11.5407C5.65172 10.8073 7.74 10.0808 9.74684 9.38325ZM14.7656 20.1224L1.75781 15.6057V12.7789L14.7656 17.2956V20.1224ZM1.75781 17.4665L14.8129 21.9995C15.0454 23.2175 16.1177 24.1411 17.4023 24.1411C18.0568 24.1411 18.656 23.9009 19.1174 23.5046L23.5547 25.0577V27.8848L1.75781 20.2939V17.4665ZM23.5547 23.1953L20.0004 21.9513C20.0254 21.806 20.0391 21.6568 20.0391 21.5044V19.1398L23.5547 20.3702V23.1953ZM28.2422 23.2622C28.2422 25.6664 27.2812 27.2072 25.3125 27.9482V20.2188C25.958 19.763 27.1989 18.7665 28.2422 17.2229V23.2622Z" fill="white"/>
</svg>
