<svg width="34" height="24" viewBox="0 0 34 24" fill="none" xmlns="http://www.w3.org/2000/svg">
<rect x="0.5" y="0.5" width="33" height="23" rx="3.5" fill="white" stroke="#D9D9D9"/>
<path fill-rule="evenodd" clip-rule="evenodd" d="M29.6285 12.1767C29.6285 10.3678 28.7753 8.94043 27.1445 8.94043C25.5068 8.94043 24.516 10.3678 24.516 12.1625C24.516 14.2894 25.6858 15.3635 27.3647 15.3635C28.1835 15.3635 28.8028 15.1727 29.2707 14.9042V13.491C28.8028 13.7312 28.2661 13.8796 27.5849 13.8796C26.9174 13.8796 26.3257 13.6393 26.25 12.8055H29.6148C29.6148 12.7137 29.6285 12.3463 29.6285 12.1767ZM26.2293 11.5054C26.2293 10.7069 26.7041 10.3748 27.1376 10.3748C27.5573 10.3748 28.0046 10.7069 28.0046 11.5054H26.2293Z" fill="#6461FC"/>
<path fill-rule="evenodd" clip-rule="evenodd" d="M21.8599 8.94043C21.1856 8.94043 20.7521 9.26547 20.5112 9.49158L20.4218 9.05349H18.908V17.2925L20.6282 16.918L20.6351 14.9183C20.8828 15.102 21.2475 15.3635 21.853 15.3635C23.0847 15.3635 24.2063 14.346 24.2063 12.106C24.1994 10.0569 23.0641 8.94043 21.8599 8.94043ZM21.447 13.8089C21.0411 13.8089 20.8002 13.6605 20.6351 13.4768L20.6282 10.8553C20.8071 10.6504 21.0548 10.5091 21.447 10.5091C22.0732 10.5091 22.5067 11.2298 22.5067 12.1555C22.5067 13.1023 22.0801 13.8089 21.447 13.8089Z" fill="#6461FC"/>
<path fill-rule="evenodd" clip-rule="evenodd" d="M16.541 8.52349L18.2682 8.14192V6.70752L16.541 7.08202V8.52349Z" fill="#6461FC"/>
<rect x="16.5409" y="9.06055" width="1.72714" height="6.18277" fill="#6461FC"/>
<path fill-rule="evenodd" clip-rule="evenodd" d="M14.6901 9.58323L14.58 9.06034H13.0938V15.2431H14.814V11.053C15.22 10.5089 15.9081 10.6078 16.1214 10.6855V9.06034C15.9012 8.97555 15.0961 8.8201 14.6901 9.58323Z" fill="#6461FC"/>
<path fill-rule="evenodd" clip-rule="evenodd" d="M11.2494 7.52734L9.57048 7.89478L9.5636 13.5547C9.5636 14.6004 10.3274 15.3706 11.3458 15.3706C11.91 15.3706 12.3229 15.2647 12.5499 15.1375V13.7031C12.3298 13.7949 11.2426 14.12 11.2426 13.0742V10.5657H12.5499V9.06067H11.2426L11.2494 7.52734Z" fill="#6461FC"/>
<path fill-rule="evenodd" clip-rule="evenodd" d="M6.59807 10.8553C6.59807 10.5798 6.81826 10.4738 7.18295 10.4738C7.70591 10.4738 8.36648 10.6363 8.88944 10.926V9.26547C8.31831 9.03229 7.75407 8.94043 7.18295 8.94043C5.78611 8.94043 4.85718 9.68943 4.85718 10.9401C4.85718 12.8903 7.47195 12.5794 7.47195 13.4203C7.47195 13.7453 7.19671 13.8513 6.81138 13.8513C6.24026 13.8513 5.51087 13.6111 4.93287 13.286V14.9678C5.5728 15.2504 6.21961 15.3705 6.81138 15.3705C8.24262 15.3705 9.2266 14.6427 9.2266 13.3779C9.21972 11.2722 6.59807 11.6467 6.59807 10.8553Z" fill="#6461FC"/>
</svg>
