<svg width="19" height="19" viewBox="0 0 19 19" fill="none" xmlns="http://www.w3.org/2000/svg">
<path fill-rule="evenodd" clip-rule="evenodd" d="M4.25 0.75C3.32174 0.75 2.4315 1.11877 1.77513 1.77518C1.11875 2.43159 0.75 3.32187 0.75 4.25017V14.7507C0.75 15.679 1.11875 16.5693 1.77513 17.2257C2.4315 17.8821 3.32174 18.2509 4.25 18.2509H14.75C15.6783 18.2509 16.5685 17.8821 17.2249 17.2257C17.8812 16.5693 18.25 15.679 18.25 14.7507V4.25017C18.25 3.32187 17.8812 2.43159 17.2249 1.77518C16.5685 1.11877 15.6783 0.75 14.75 0.75H4.25ZM2.5 4.25017C2.5 3.78602 2.68437 3.34088 3.01256 3.01268C3.34075 2.68447 3.78587 2.50009 4.25 2.50009H14.75C15.2141 2.50009 15.6592 2.68447 15.9874 3.01268C16.3156 3.34088 16.5 3.78602 16.5 4.25017V14.7507C16.5 15.2148 16.3156 15.66 15.9874 15.9882C15.6592 16.3164 15.2141 16.5008 14.75 16.5008H4.25C3.78587 16.5008 3.34075 16.3164 3.01256 15.9882C2.68437 15.66 2.5 15.2148 2.5 14.7507V4.25017ZM9.5 5.56274C9.5 5.33066 9.40781 5.10809 9.24372 4.94399C9.07962 4.77989 8.85706 4.68769 8.625 4.68769C8.39293 4.68769 8.17037 4.77989 8.00628 4.94399C7.84219 5.10809 7.75 5.33066 7.75 5.56274V6.8753H6.875C6.64293 6.8753 6.42038 6.96749 6.25628 7.1316C6.09219 7.2957 6 7.51827 6 7.75035C6 7.98242 6.09219 8.20499 6.25628 8.36909C6.42038 8.5332 6.64293 8.62539 6.875 8.62539H7.75V11.1543C7.75 13.2937 9.88675 14.7743 11.8887 14.0218L12.4277 13.8205C12.6451 13.7389 12.8211 13.5744 12.9171 13.363C13.0131 13.1516 13.0212 12.9108 12.9396 12.6935C12.8581 12.4761 12.6935 12.3001 12.4821 12.2041C12.2708 12.1081 12.03 12.1 11.8126 12.1816L11.2736 12.3828C11.0752 12.4573 10.8617 12.4826 10.6514 12.4566C10.4411 12.4306 10.2402 12.354 10.0659 12.2334C9.89158 12.1129 9.74907 11.9519 9.65053 11.7643C9.55198 11.5767 9.50033 11.3679 9.5 11.156V8.62539H11.6875C11.9196 8.62539 12.1421 8.5332 12.3062 8.36909C12.4703 8.20499 12.5625 7.98242 12.5625 7.75035C12.5625 7.51827 12.4703 7.2957 12.3062 7.1316C12.1421 6.96749 11.9196 6.8753 11.6875 6.8753H9.5V5.56274Z" fill="white"/>
</svg>
    